 http://www.imdb.com/title/tt0405094/
Tagline: Before the Fall of the Berlin Wall, East Germany's Secret Police Listened to Your Secrets 
Plot: In 1984 East Berlin, an agent of the secret police, conducting surveillance on a writer and his lover, finds himself becoming increasingly absorbed by their lives
Total Size : 1.81 GB

[code]General
Complete name : Das Leben der Anderen 2006 DVDRip [H 264-MP4-AAC] ~ Mindbreaker.mp4
Format : H.264/AAC/MP4 - Anamophic
Source : DVD (retail)
File size : 1.81 GiB
Duration : 2h 11mn
Overall bit rate : 1 963 Kbps


Video
ID : 1
Format : AVC
Format/Info : Advanced Video Codec
Format profile : High@L3.0
Duration : 2h 11mn
Bit rate : 1800 Kbps
Width : 720 pixels
Height : 432 pixels
Display aspect ratio : 2.35:1
Frame rate : 25.000 fps
Bits/(Pixel*Frame) : 0.231
Stream size : 1.66 GiB (92%)
Writing library : x264 core 65

Audio
ID : 2
Format : AAC
Format/Info : Advanced Audio Codec
Format profile : LC
Duration : 2h 11mn
Bit rate : 160 Kbps
Channel(s) : 2 channels
Sampling rate : 48.0 KHz
Stream size : 151 MiB (8%)
Language : German

Subtitle
Format : SubRip
Language : Dutch & English
Source : DVD & Subscene.org 
http://genesis.1337x.org:1337/announce
http://tracker.openbittorrent.com/announce[/code]

